<?xml version="1.0" encoding="UTF-8" standalone="no"?>
<!-- Created with Inkscape (http://www.inkscape.org/) -->

<svg
   width="17.464832mm"
   height="23.220387mm"
   viewBox="0 0 17.464832 23.220387"
   version="1.1"
   id="svg1"
   xml:space="preserve"
   xmlns:inkscape="http://www.inkscape.org/namespaces/inkscape"
   xmlns:sodipodi="http://sodipodi.sourceforge.net/DTD/sodipodi-0.dtd"
   xmlns:xlink="http://www.w3.org/1999/xlink"
   xmlns="http://www.w3.org/2000/svg"
   xmlns:svg="http://www.w3.org/2000/svg"><sodipodi:namedview
     id="namedview1"
     pagecolor="#505050"
     bordercolor="#eeeeee"
     borderopacity="1"
     inkscape:showpageshadow="0"
     inkscape:pageopacity="0"
     inkscape:pagecheckerboard="0"
     inkscape:deskcolor="#505050"
     inkscape:document-units="mm"><inkscape:page
       x="0"
       y="0"
       width="17.464832"
       height="23.220387"
       id="page2"
       margin="0"
       bleed="0" /></sodipodi:namedview><defs
     id="defs1"><linearGradient
       id="linearGradient4"
       inkscape:collect="always"><stop
         style="stop-color:#e9e4ff;stop-opacity:1;"
         offset="0"
         id="stop4" /><stop
         style="stop-color:#d8ceff;stop-opacity:1;"
         offset="1"
         id="stop5" /></linearGradient><radialGradient
       inkscape:collect="always"
       xlink:href="#linearGradient4"
       id="radialGradient5"
       cx="73.846519"
       cy="125.44026"
       fx="73.846519"
       fy="125.44026"
       r="8.7324162"
       gradientTransform="matrix(1,0,0,1.3295514,0,-41.339013)"
       gradientUnits="userSpaceOnUse" /></defs><g
     inkscape:label="Layer 1"
     inkscape:groupmode="layer"
     id="layer1"
     inkscape:export-filename="layer1.svg"
     inkscape:export-xdpi="96"
     inkscape:export-ydpi="96"
     transform="translate(-65.114104,-113.83007)"><path
       id="path2"
       style="display:inline;fill:url(#radialGradient5);fill-opacity:1;stroke-width:0.264583"
       d="m 72.508236,113.83129 c -1.984654,-0.0263 -3.81229,0.35723 -5.453931,2.44378 -1.568549,1.72959 -2.180886,4.78367 -1.855701,6.78925 0.01075,1.00894 0.341516,3.85811 1.516187,5.11442 1.142458,1.22186 2.760609,2.61837 5.20485,2.55747 2.444241,-0.0609 3.260941,-0.29158 5.363497,-2.69286 -0.02263,3.22496 -1.282335,5.45893 -4.277258,5.45393 -2.994923,-0.005 -5.952092,-1.40302 -5.952092,-1.40302 v 4.00544 c 0,0 3.801827,0.97413 5.703011,0.95033 4.349165,-0.0544 4.107813,0.10431 6.856946,-1.69705 2.749132,-1.80135 2.941939,-4.48086 2.941939,-4.48086 l 0.02326,-16.67909 h -5.319055 v 2.39882 c -0.635315,-1.3573 -2.720944,-2.80406 -4.751648,-2.76056 z m 1.613855,3.78479 c 2.175171,0 3.168282,2.44059 3.168282,4.38423 0,1.94364 -1.469551,4.92203 -3.376538,4.96093 -1.906987,0.0389 -3.374538,-1.75602 -3.376538,-4.49688 -0.002,-2.74087 1.409623,-4.84828 3.584794,-4.84828 z" /></g></svg>
